<svg width="256" height="256" viewBox="0 0 256 256" fill="none" xmlns="http://www.w3.org/2000/svg">
  <rect width="256" height="256" rx="32" fill="#121212"/>
  <path d="M128 64C92.654 64 64 92.654 64 128C64 163.346 92.654 192 128 192C163.346 192 192 163.346 192 128C192 92.654 163.346 64 128 64ZM128 80C154.51 80 176 101.49 176 128C176 154.51 154.51 176 128 176C101.49 176 80 154.51 80 128C80 101.49 101.49 80 128 80Z" fill="#36D399"/>
  <circle cx="128" cy="128" r="32" fill="#121212"/>
  <rect x="124" y="88" width="8" height="40" rx="4" fill="#36D399"/>
  <rect x="110" y="120" width="36" height="24" rx="4" fill="#36D399"/>
  <path d="M120 120V128C120 132.418 123.582 136 128 136C132.418 136 136 132.418 136 128V120" stroke="#121212" stroke-width="8" stroke-linecap="round"/>
</svg>
